<?xml version="1.0" encoding="UTF-8" standalone="no"?>
<!-- Created with Inkscape (http://www.inkscape.org/) -->
<svg xmlns:inkscape="http://www.inkscape.org/namespaces/inkscape" xmlns:rdf="http://www.w3.org/1999/02/22-rdf-syntax-ns#" xmlns="http://www.w3.org/2000/svg" xmlns:xlink="http://www.w3.org/1999/xlink" xmlns:ns1="http://sozi.baierouge.fr" xmlns:cc="http://creativecommons.org/ns#" xmlns:sodipodi="http://sodipodi.sourceforge.net/DTD/sodipodi-0.dtd" xmlns:dc="http://purl.org/dc/elements/1.1/" id="svg2" xml:space="preserve" viewBox="0 0 34.361 30.151" version="1.1" inkscape:version="0.91 r13725">
  <defs id="defs6">
    <linearGradient id="linearGradient24" y2="-16348" gradientUnits="userSpaceOnUse" x2="14.034" gradientTransform="matrix(.00011722 -.8 .8 -.0008 13081 8.197)" y1="-16348" x1="7.209">
      <stop id="stop26" style="stop-color:#8f8f8f" offset="0"/>
      <stop id="stop28" style="stop-color:#e8e8e8" offset=".22750"/>
      <stop id="stop30" style="stop-color:#696969" offset="1"/>
    </linearGradient>
    <linearGradient id="linearGradient44" y2="-13812" gradientUnits="userSpaceOnUse" x2="-1911.4" gradientTransform="matrix(.21808 -.76968 .76968 .21808 11051 1549.7)" y1="-13812" x1="-1920.6">
      <stop id="stop46" style="stop-color:#e8e8e8" offset="0"/>
      <stop id="stop48" style="stop-color:#ededed" offset="1"/>
    </linearGradient>
    <linearGradient id="linearGradient62" y2="-13812" gradientUnits="userSpaceOnUse" x2="-1911.4" gradientTransform="matrix(.21808 -.76968 .76968 .21808 11050 1549.6)" y1="-13812" x1="-1920.6">
      <stop id="stop64" style="stop-color:#e8e8e8" offset="0"/>
      <stop id="stop66" style="stop-color:#878787" offset="1"/>
    </linearGradient>
    <linearGradient id="linearGradient80" y2="-17617" gradientUnits="userSpaceOnUse" x2="1517.7" gradientTransform="matrix(-.1364 -.78832 .78832 -.1364 14100 -1196.5)" y1="-17617" x1="1516.4">
      <stop id="stop82" style="stop-color:#8f8f8f" offset="0"/>
      <stop id="stop84" style="stop-color:#e8e8e8" offset=".22750"/>
      <stop id="stop86" style="stop-color:#696969" offset="1"/>
    </linearGradient>
    <linearGradient id="linearGradient100" y2="-8.3247" gradientUnits="userSpaceOnUse" x2="26.672" gradientTransform="matrix(.8 0 0 .8 4.7877 21.898)" y1="-8.3247" x1="21.922">
      <stop id="stop102" style="stop-color:#ce7949" offset="0"/>
      <stop id="stop104" style="stop-color:#a25a32" offset="1"/>
    </linearGradient>
    <linearGradient id="linearGradient118" y2="-1.6875" gradientUnits="userSpaceOnUse" x2="28.325" gradientTransform="matrix(.8 0 0 .8 4.7877 21.898)" y1="-1.6875" x1="22.575">
      <stop id="stop120" style="stop-color:#ce7949" offset="0"/>
      <stop id="stop122" style="stop-color:#a25a32" offset="1"/>
    </linearGradient>
    <linearGradient id="linearGradient142" y2="-2.5186" gradientUnits="userSpaceOnUse" x2="25.45" gradientTransform="matrix(.8 0 0 .8 4.7877 21.898)" y1="-2.5186" x1="21.95">
      <stop id="stop144" style="stop-color:#ce7949" offset="0"/>
      <stop id="stop146" style="stop-color:#a25a32" offset="1"/>
    </linearGradient>
    <linearGradient id="linearGradient166" y2="-15.763" gradientUnits="userSpaceOnUse" x2="27.213" gradientTransform="matrix(.8 0 0 .8 4.7877 21.898)" y1="-15.763" x1="23.988">
      <stop id="stop168" style="stop-color:#ce7949" offset="0"/>
      <stop id="stop170" style="stop-color:#a25a32" offset="1"/>
    </linearGradient>
    <linearGradient id="linearGradient186" y2="-13440" gradientUnits="userSpaceOnUse" x2="-2087.8" gradientTransform="matrix(.24544 -.76144 .76144 .24544 10763 1712.5)" y1="-13440" x1="-2107">
      <stop id="stop188" style="stop-color:#b35f30" offset="0"/>
      <stop id="stop190" style="stop-color:#844a29" offset="1"/>
    </linearGradient>
    <linearGradient id="linearGradient204" y2="-12875" gradientUnits="userSpaceOnUse" x2="-2352.8" gradientTransform="matrix(.28592 -.7472 .7472 .28592 10316 1926.9)" y1="-12875" x1="-2369.8">
      <stop id="stop206" style="stop-color:#b35f30" offset="0"/>
      <stop id="stop208" style="stop-color:#844a29" offset="1"/>
    </linearGradient>
    <linearGradient id="linearGradient222" y2="-14297" gradientUnits="userSpaceOnUse" x2="-1937.7" gradientTransform="matrix(.17912 -.77968 .76976 .22224 11374 1671.9)" y1="-14297" x1="-1950.7">
      <stop id="stop224" style="stop-color:#f5de8f" offset="0"/>
      <stop id="stop226" style="stop-color:#a5924f" offset="1"/>
    </linearGradient>
    <clipPath id="clipPath236">
      <path id="path238" d="m10.148 3.218c-0.64-0.027-1.8 0.067-3.48 0.282-0.133 0.343-0.199 0.707-0.199 1.078 0 0.746 0.199 1.375 0.597 1.879 0.375 0.508 0.84 0.761 1.403 0.761 0.531 0 1-0.253 1.398-0.761 0.375-0.504 0.563-1.133 0.563-1.879 0-0.453-0.094-0.906-0.282-1.36z" inkscape:connector-curvature="0"/>
    </clipPath>
    <clipPath id="clipPath244">
      <path id="path246" d="m1.5153-24.968h6.25v4.6816h-6.25v-4.6816z" inkscape:connector-curvature="0"/>
    </clipPath>
    <radialGradient id="radialGradient248" gradientUnits="userSpaceOnUse" cy="-21.65" cx="4.6001" r="2.4625">
      <stop id="stop250" style="stop-color:#ffffff;stop-opacity:.37650" offset="0"/>
      <stop id="stop252" style="stop-color:#ffffff;stop-opacity:0" offset=".86670"/>
      <stop id="stop256" style="stop-color:#ffffff;stop-opacity:0" offset="1"/>
    </radialGradient>
    <mask id="mask258">
      <g id="g260">
        <g id="g262" clip-path="url(#clipPath244)">
          <path id="path264" style="fill:url(#radialGradient248)" d="m1.5153-24.968h6.25v4.6816h-6.25v-4.6816z" inkscape:connector-curvature="0"/>
        </g>
      </g>
    </mask>
    <radialGradient id="radialGradient268" gradientUnits="userSpaceOnUse" cy="-21.65" cx="4.6001" r="2.4625">
      <stop id="stop270" style="stop-color:#000000" offset="0"/>
      <stop id="stop272" style="stop-color:#000000" offset=".86670"/>
      <stop id="stop274" style="stop-color:#000000" offset="1"/>
    </radialGradient>
    <linearGradient id="linearGradient288" y2="-9703.3" gradientUnits="userSpaceOnUse" x2="-3266.3" gradientTransform="matrix(.48656 -.63504 .63504 .48656 7758.9 2650.6)" y1="-9703.3" x1="-3268.8">
      <stop id="stop290" style="stop-color:#ce7949" offset="0"/>
      <stop id="stop292" style="stop-color:#a25a32" offset="1"/>
    </linearGradient>
    <linearGradient id="linearGradient310" y2="-16826" gradientUnits="userSpaceOnUse" x2="534.6" gradientTransform="matrix(-.04832 -.79856 .79856 -.04832 13468 -385.59)" y1="-16826" x1="529.22">
      <stop id="stop312" style="stop-color:#ce7949" offset="0"/>
      <stop id="stop314" style="stop-color:#a25a32" offset="1"/>
    </linearGradient>
    <clipPath id="clipPath326">
      <path id="path328" d="m16.949 2.457c-0.535-0.024-1.801 0.082-3.801 0.32-0.132 0.293-0.199 0.68-0.199 1.16 0 0.774 0.211 1.442 0.637 2 0.43 0.535 0.934 0.801 1.523 0.801 0.614 0 1.118-0.266 1.52-0.801 0.426-0.558 0.641-1.226 0.641-2 0-0.504-0.11-1-0.321-1.48z" inkscape:connector-curvature="0"/>
    </clipPath>
    <clipPath id="clipPath334">
      <path id="path336" d="m9.0153-25.548h7.5v4.8661h-7.5v-4.8661z" inkscape:connector-curvature="0"/>
    </clipPath>
    <radialGradient id="radialGradient338" gradientUnits="userSpaceOnUse" cy="-22.45" cx="12.9" r="2.7252">
      <stop id="stop340" style="stop-color:#ffffff;stop-opacity:.37650" offset="0"/>
      <stop id="stop342" style="stop-color:#ffffff;stop-opacity:0" offset=".86670"/>
      <stop id="stop346" style="stop-color:#ffffff;stop-opacity:0" offset="1"/>
    </radialGradient>
    <mask id="mask348">
      <g id="g350">
        <g id="g352" clip-path="url(#clipPath334)">
          <path id="path354" style="fill:url(#radialGradient338)" d="m9.0153-25.548h7.5v4.8661h-7.5v-4.8661z" inkscape:connector-curvature="0"/>
        </g>
      </g>
    </mask>
    <radialGradient id="radialGradient358" gradientUnits="userSpaceOnUse" cy="-22.45" cx="12.9" r="2.7252">
      <stop id="stop360" style="stop-color:#000000" offset="0"/>
      <stop id="stop362" style="stop-color:#000000" offset=".86670"/>
      <stop id="stop364" style="stop-color:#000000" offset="1"/>
    </radialGradient>
    <linearGradient id="linearGradient378" y2="-9749.3" gradientUnits="userSpaceOnUse" x2="-3253.6" gradientTransform="matrix(.48368 -.6372 .6372 .48368 7800.7 2644.9)" y1="-9749.3" x1="-3256.2">
      <stop id="stop380" style="stop-color:#ce7949" offset="0"/>
      <stop id="stop382" style="stop-color:#a25a32" offset="1"/>
    </linearGradient>
    <linearGradient id="linearGradient400" y2="-16825" gradientUnits="userSpaceOnUse" x2="543.36" gradientTransform="matrix(-.04904 -.79848 .79848 -.04904 13474 -392.07)" y1="-16825" x1="537.65">
      <stop id="stop402" style="stop-color:#ce7949" offset="0"/>
      <stop id="stop404" style="stop-color:#a25a32" offset="1"/>
    </linearGradient>
    <linearGradient id="linearGradient424" y2="-16802" gradientUnits="userSpaceOnUse" x2="513.8" gradientTransform="matrix(-.04736 -.79856 .79856 -.04736 13462 -377.71)" y1="-16802" x1="510.84">
      <stop id="stop426" style="stop-color:#5f4e29" offset="0"/>
      <stop id="stop428" style="stop-color:#271d09" offset=".85880"/>
      <stop id="stop430" style="stop-color:#271d09" offset="1"/>
    </linearGradient>
    <linearGradient id="linearGradient446" y2="-16828" gradientUnits="userSpaceOnUse" x2="546.52" gradientTransform="matrix(-.0508 -.7984 .7984 -.0508 13488 -407.49)" y1="-16828" x1="543.76">
      <stop id="stop448" style="stop-color:#5f4e29" offset="0"/>
      <stop id="stop450" style="stop-color:#271d09" offset=".85880"/>
      <stop id="stop452" style="stop-color:#271d09" offset="1"/>
    </linearGradient>
    <clipPath id="clipPath462">
      <path id="path464" d="m16.066 8.019c0-0.855-0.226-1.574-0.679-2.16-0.453-0.613-1-0.922-1.641-0.922-0.664 0-1.226 0.309-1.68 0.922-0.453 0.586-0.679 1.305-0.679 2.16 0 0.852 0.226 1.571 0.679 2.16 0.454 0.614 1.016 0.918 1.68 0.918 0.641 0 1.188-0.304 1.641-0.918 0.453-0.589 0.679-1.308 0.679-2.16z" inkscape:connector-curvature="0"/>
    </clipPath>
    <clipPath id="clipPath470">
      <path id="path472" d="m7.7653-20.292h7.5v6.6409h-7.5v-6.6409z" inkscape:connector-curvature="0"/>
    </clipPath>
    <radialGradient id="radialGradient474" gradientUnits="userSpaceOnUse" cy="-17.35" cx="11.2" r="2.9124">
      <stop id="stop476" style="stop-color:#ffffff;stop-opacity:.37650" offset="0"/>
      <stop id="stop478" style="stop-color:#ffffff;stop-opacity:0" offset=".86670"/>
      <stop id="stop482" style="stop-color:#ffffff;stop-opacity:0" offset="1"/>
    </radialGradient>
    <mask id="mask484">
      <g id="g486">
        <g id="g488" clip-path="url(#clipPath470)">
          <path id="path490" style="fill:url(#radialGradient474)" d="m7.7653-20.292h7.5v6.6409h-7.5v-6.6409z" inkscape:connector-curvature="0"/>
        </g>
      </g>
    </mask>
    <radialGradient id="radialGradient494" gradientUnits="userSpaceOnUse" cy="-17.35" cx="11.2" r="2.9124">
      <stop id="stop496" style="stop-color:#000000" offset="0"/>
      <stop id="stop498" style="stop-color:#000000" offset=".86670"/>
      <stop id="stop500" style="stop-color:#000000" offset="1"/>
    </radialGradient>
    <linearGradient id="linearGradient514" y2="-14.975" gradientUnits="userSpaceOnUse" x2="11.876" gradientTransform="matrix(.8 0 0 .8 4.7877 21.898)" y1="-14.975" x1="3.7251">
      <stop id="stop516" style="stop-color:#ce7949" offset="0"/>
      <stop id="stop518" style="stop-color:#a25a32" offset="1"/>
    </linearGradient>
    <linearGradient id="linearGradient536" y2="-2632.5" gradientUnits="userSpaceOnUse" x2="-1954.1" gradientTransform="matrix(.76784 -.22464 .22464 .76784 2104.1 1594.9)" y1="-2632.5" x1="-1957.9">
      <stop id="stop538" style="stop-color:#ce7949" offset="0"/>
      <stop id="stop540" style="stop-color:#a25a32" offset="1"/>
    </linearGradient>
    <linearGradient id="linearGradient558" y2="-10.208" gradientUnits="userSpaceOnUse" x2="7.7629" gradientTransform="matrix(.8 0 0 .8 4.7877 21.898)" y1="-10.208" x1="-1.1621">
      <stop id="stop560" style="stop-color:#ce7949" offset="0"/>
      <stop id="stop562" style="stop-color:#a25a32" offset="1"/>
    </linearGradient>
  </defs>
  <g id="g10" transform="matrix(1.25 0 0 -1.25 0 30.151)">
    <g id="g12">
      <g id="g14">
        <g id="g16">
          <g id="g22">
            <path id="path32" style="fill-rule:evenodd;fill:url(#linearGradient24)" d="m3.348 10.82c0.054 0.477-0.067 0.785-0.36 0.918l-0.359 0.039c-0.188 0-0.348-0.027-0.481-0.078-0.425-0.137-0.668-0.426-0.718-0.883-0.028-0.398 0.078-0.68 0.316-0.84 0.348-0.183 0.695-0.183 1.043 0 0.32 0.188 0.508 0.469 0.559 0.844zm-2.762 3.719c0.082 0.64 0.402 0.972 0.961 1 1.094 0.023 1.867-0.508 2.32-1.602 0.403-0.984 0.43-1.64 0.082-1.961 0.348-0.426 0.321-1.066-0.082-1.918-0.453-0.933-1.226-1.226-2.32-0.879-0.559 0.184-0.879 0.614-0.961 1.278-0.106 0.695 0.094 1.226 0.602 1.601l0.359 0.282-0.359 0.359c-0.508 0.558-0.708 1.172-0.602 1.84zm2.762-1.199c-0.051 0.398-0.239 0.73-0.559 1-0.348 0.316-0.695 0.425-1.043 0.316-0.238-0.106-0.344-0.371-0.316-0.797 0.05-0.453 0.293-0.812 0.718-1.082l0.481-0.238 0.359-0.043c0.293 0.027 0.414 0.308 0.36 0.844z" inkscape:connector-curvature="0"/>
          </g>
        </g>
      </g>
      <g id="g34">
        <g id="g36">
          <g id="g42">
            <path id="path50" style="fill-rule:evenodd;fill:url(#linearGradient44)" d="m1.789 11.539c-0.453-0.11-0.695-0.387-0.723-0.84-0.023-0.43 0.082-0.723 0.321-0.883 0.32-0.211 0.656-0.211 1 0 0.32 0.188 0.508 0.469 0.562 0.84 0.078 0.48-0.027 0.773-0.32 0.883l-0.359 0.078-0.481-0.078zm-1.601 2.84c0.109 0.64 0.441 0.972 1 1 1.093 0.027 1.867-0.508 2.32-1.602 0.398-0.984 0.414-1.641 0.039-1.961 0.375-0.398 0.359-1.039-0.039-1.918-0.453-0.961-1.227-1.269-2.32-0.922-0.559 0.215-0.895 0.656-1 1.321-0.106 0.695 0.093 1.226 0.601 1.601l0.399 0.281-0.399 0.36c-0.508 0.558-0.707 1.172-0.601 1.84zm1.199 0.117c-0.239-0.106-0.344-0.371-0.321-0.801 0.028-0.477 0.27-0.84 0.723-1.078l0.481-0.238 0.359-0.043c0.293 0.027 0.398 0.308 0.32 0.839-0.054 0.403-0.242 0.735-0.562 1.004-0.344 0.317-0.68 0.426-1 0.317z" inkscape:connector-curvature="0"/>
          </g>
        </g>
      </g>
      <g id="g52">
        <g id="g54">
          <g id="g60">
            <path id="path68" style="fill-rule:evenodd;fill:url(#linearGradient62)" d="m1.629 11.457c-0.453-0.106-0.695-0.387-0.723-0.84-0.023-0.426 0.082-0.719 0.321-0.879 0.32-0.215 0.656-0.215 1 0 0.32 0.187 0.507 0.465 0.562 0.84 0.106 0.508 0 0.801-0.32 0.879l-0.36 0.082-0.48-0.082zm-1.602 2.84c0.106 0.64 0.442 0.976 1 1 1.094 0.027 1.868-0.504 2.321-1.598 0.398-0.988 0.414-1.641 0.039-1.961 0.375-0.398 0.359-1.039-0.039-1.922-0.453-0.957-1.227-1.266-2.321-0.918-0.558 0.215-0.894 0.652-1 1.32-0.105 0.692 0.094 1.227 0.602 1.598l0.398 0.281-0.398 0.36c-0.508 0.562-0.707 1.175-0.602 1.84zm2.762-1.2c-0.055 0.403-0.242 0.735-0.562 1-0.344 0.321-0.68 0.426-1 0.321-0.239-0.106-0.344-0.375-0.321-0.801 0.028-0.481 0.27-0.84 0.723-1.078l0.48-0.242 0.36-0.04c0.293 0.028 0.398 0.309 0.32 0.84z" inkscape:connector-curvature="0"/>
          </g>
        </g>
      </g>
      <g id="g70">
        <g id="g72">
          <g id="g78">
            <path id="path88" style="fill-rule:evenodd;fill:url(#linearGradient80)" d="m8.148 10.496-4.32 0.64c-0.242-0.023-0.359 0.11-0.359 0.403 0 0.183 0.066 0.32 0.199 0.398 0.055 0.055 0.105 0.082 0.16 0.082l4.32-0.64v-0.883z" inkscape:connector-curvature="0"/>
          </g>
        </g>
      </g>
      <g id="g90">
        <g id="g92">
          <g id="g98">
            <path id="path106" style="fill-rule:evenodd;fill:url(#linearGradient100)" d="m22.469 14.617 1.32 1.082c0.238 0.16 0.453 0.426 0.641 0.801 0.183 0.398 0.238 0.664 0.156 0.797l1.363 0.043 0.199-1.321c-0.027-0.933-0.386-1.574-1.082-1.922l-2.078-0.961c-0.16 0.161-0.308 0.348-0.441 0.563-0.266 0.398-0.293 0.707-0.078 0.918z" inkscape:connector-curvature="0"/>
          </g>
        </g>
      </g>
      <g id="g108">
        <g id="g110">
          <g id="g116">
            <path id="path124" style="fill-rule:evenodd;fill:url(#linearGradient118)" d="m25.949 24.019c0.453-0.187 0.852-0.816 1.199-1.883 0.372-1.199 0.438-2.304 0.2-3.32-0.239-0.957-0.746-1.547-1.52-1.758-0.508-0.133-1.055-0.105-1.64 0.078-0.321 0.11-0.614 0.336-0.879 0.68-0.266 0.402-0.414 0.84-0.442 1.32-0.027 0.297 0.242 0.817 0.801 1.563 0.559 0.773 0.852 1.508 0.879 2.199 0 0.453 0.133 0.801 0.402 1.039 0.266 0.215 0.598 0.242 1 0.082z" inkscape:connector-curvature="0"/>
          </g>
        </g>
      </g>
      <path id="path126" style="fill-rule:evenodd;fill:#934c26" d="m26.867 18.418c0.16 0.48 0.227 1.172 0.199 2.082-0.023 1.199-0.238 2.226-0.636 3.078 0.371-0.508 0.664-1.199 0.879-2.078 0.211-0.961 0.226-1.856 0.039-2.684-0.239-0.957-0.746-1.547-1.52-1.758-0.508-0.133-1.055-0.105-1.64 0.078-0.321 0.11-0.614 0.336-0.879 0.68-0.266 0.402-0.414 0.84-0.442 1.32v0.161l1.481 1.203c0.214-0.16 0.453-0.364 0.718-0.602 0.243-0.187 0.442-0.453 0.602-0.801 0.215-0.425 0.441-0.718 0.68-0.879 0.265-0.187 0.441-0.121 0.519 0.2z" inkscape:connector-curvature="0"/>
      <path id="path128" style="fill-rule:evenodd;fill:#e49264" d="m25.867 23.297c-0.453-0.133-0.867-0.106-1.238 0.082 0.16 0.558 0.504 0.8 1.039 0.718 0.559-0.425 0.629-0.691 0.199-0.8z" inkscape:connector-curvature="0"/>
      <path id="path130" style="fill-rule:evenodd;fill:#e49264" d="m24.949 21.5c-0.297 0-0.496 0.156-0.601 0.476l0.121 0.403c0.16 0.054 0.414 0.027 0.758-0.082 0.375-0.079 0.585-0.2 0.64-0.36s-0.027-0.281-0.238-0.359c-0.215-0.106-0.441-0.133-0.68-0.078z" inkscape:connector-curvature="0"/>
      <g id="g132">
        <g id="g134">
          <g id="g140">
            <path id="path148" style="fill-rule:evenodd;fill:url(#linearGradient142)" d="m22.988 21.539c0.239 0.371 0.465 0.531 0.68 0.48 0.187-0.054 0.398-0.347 0.641-0.883 0.132-0.32 0.359-0.863 0.679-1.636 0.266-0.535 0.266-0.977 0-1.321-0.242-0.297-0.574-0.441-1-0.441-1.468 0-1.945 0.934-1.441 2.801 0.082 0.343 0.226 0.679 0.441 1z" inkscape:connector-curvature="0"/>
          </g>
        </g>
      </g>
      <path id="path150" style="fill-rule:evenodd;fill:#934c26" d="m22.547 13.699c-0.266 0.398-0.293 0.707-0.078 0.918l1.32 1.082c0.238 0.16 0.453 0.426 0.641 0.801 0.183 0.398 0.238 0.664 0.156 0.797l1.281 0.043 0.16-0.403 0.039-0.16c-0.05-0.133-0.265-0.344-0.636-0.641-0.082-0.16-0.121-0.371-0.121-0.636 0-0.293 0.05-0.508 0.16-0.641l0.277-0.16c-0.184-0.293-0.41-0.492-0.68-0.602l-2.078-0.961c-0.16 0.161-0.308 0.348-0.441 0.563z" inkscape:connector-curvature="0"/>
      <path id="path152" style="fill-rule:evenodd;fill:#934c26" d="m24.227 19.457c0.16-0.211 0.043 0.175-0.36 1.16-0.133 0.32-0.133 0.734 0 1.242 0.133-0.137 0.309-0.453 0.52-0.961 0.133-0.293 0.336-0.762 0.601-1.398 0.266-0.535 0.266-0.977 0-1.321-0.242-0.297-0.574-0.441-1-0.441-1.359 0-1.867 0.852-1.519 2.559 0.691 0.109 1.277-0.172 1.758-0.84z" inkscape:connector-curvature="0"/>
      <path id="path154" style="fill-rule:evenodd;fill:#e49264" d="m23.629 22.019c0.133-0.242 0.105-0.441-0.082-0.601-0.531-0.453-0.852-0.668-0.961-0.641 0.32 0.855 0.668 1.27 1.043 1.242z" inkscape:connector-curvature="0"/>
      <g id="g156">
        <g id="g158">
          <g id="g164">
            <path id="path172" style="fill-rule:evenodd;fill:url(#linearGradient166)" d="m24.586 10.699c0.16 0.027 0.523 0.094 1.082 0.199 0.508 0.027 0.801-0.187 0.879-0.641 0.105-0.558 0.066-1.16-0.117-1.8-0.16-0.614-0.348-0.867-0.563-0.758-0.133 0.078-0.293 0.305-0.48 0.68-0.184 0.371-0.332 0.574-0.438 0.597l-0.961 0.203 0.598 1.52z" inkscape:connector-curvature="0"/>
          </g>
        </g>
      </g>
      <path id="path174" style="fill-rule:evenodd;fill:#934c26" d="m23.988 9.179 0.598 1.52c0.137 0.027 0.43 0.094 0.883 0.199 0-0.187 0.066-0.547 0.199-1.082 0.105-0.293 0.187-0.437 0.238-0.437 0.188-0.028 0.336 0.171 0.442 0.597 0 0.297 0.027 0.469 0.082 0.524l0.117-0.243c0.105-0.558 0.066-1.16-0.117-1.8-0.16-0.614-0.348-0.867-0.563-0.758-0.133 0.078-0.293 0.305-0.48 0.68-0.184 0.371-0.332 0.574-0.438 0.597l-0.961 0.203z" inkscape:connector-curvature="0"/>
      <g id="g176">
        <g id="g178">
          <g id="g184">
            <path id="path192" style="fill-rule:evenodd;fill:url(#linearGradient186)" d="m13.188 20.937c0.718 0.028 2.265-0.121 4.64-0.437 2.508-0.348 4.055-0.524 4.641-0.524 0.879 0 1.547-0.172 2-0.519 0.293-0.239 0.519-0.614 0.679-1.117 0.079-0.348 0.133-1.868 0.161-4.563 0.027-2.453 0.027-4.012 0-4.68v-1.16c-0.028-0.398-0.149-0.758-0.36-1.078-0.215-0.348-0.933-0.949-2.16-1.801-1.066-0.773-1.84-1.281-2.32-1.519-1.36-0.75-2.375-1.121-3.039-1.121-1.95 0.238-3.442 0.359-4.481 0.359-0.613 0.027-1.773 0.16-3.48 0.402-1.68 0.239-2.68 0.387-3 0.438-0.563 0.105-0.949 0.348-1.16 0.723-0.266 0.531-0.414 1.613-0.442 3.238-0.105 2.586-0.16 4.48-0.16 5.679 0.027 2.133 0.32 3.399 0.879 3.801 0.777 0.532 2 1.254 3.684 2.16 2.027 1.122 3.332 1.692 3.918 1.719z" inkscape:connector-curvature="0"/>
          </g>
        </g>
      </g>
      <g id="g194">
        <g id="g196">
          <g id="g202">
            <path id="path210" style="fill-rule:evenodd;fill:url(#linearGradient204)" d="m20.469 3.539c-0.266-0.133-0.774-0.348-1.52-0.641-0.801-0.293-1.308-0.453-1.519-0.48 0.238 0.48 0.359 1.054 0.359 1.718l-0.082 11.204 0.082 0.117c0.133 0.16 0.852 0.562 2.16 1.199 1.492 0.723 2.438 1.215 2.84 1.48 0.348 0.243 0.945 0.641 1.797 1.204 0.242-0.27 0.43-0.602 0.562-1l0.122-2.083c0.105-3.464 0.117-5.851 0.039-7.16v-1.16c-0.028-0.398-0.149-0.758-0.36-1.078-0.215-0.348-0.933-0.949-2.16-1.801-1.066-0.773-1.84-1.281-2.32-1.519z" inkscape:connector-curvature="0"/>
          </g>
        </g>
      </g>
      <g id="g212">
        <g id="g214">
          <g id="g220">
            <path id="path228" style="fill-rule:evenodd;fill:url(#linearGradient222)" d="m20.469 3.539c-0.668-0.321-1.574-0.668-2.723-1.039 0.453 1.519 0.977 2.879 1.563 4.078 1.039 2.078 2.121 3.375 3.238 3.879 1.039 0.453 1.961 0.015 2.762-1.321v-1.199c-0.028-0.398-0.149-0.758-0.36-1.078-0.215-0.348-0.933-0.949-2.16-1.801-1.066-0.773-1.84-1.281-2.32-1.519z" inkscape:connector-curvature="0"/>
          </g>
        </g>
      </g>
      <path id="path230" style="fill-rule:evenodd;fill:#d17544" d="m20.27 16.777c-1.524-0.719-2.348-1.16-2.481-1.32-0.746 0.054-3.082 0.293-7 0.722-2.988 0.321-4.84 0.453-5.562 0.399 0.054 0.133 0.175 0.293 0.359 0.48 0.777 0.532 2 1.254 3.684 2.16 2.027 1.122 3.332 1.692 3.918 1.719 1.785 0.082 4.878-0.238 9.281-0.961 1.117-0.16 1.828-0.371 2.117-0.636-0.289-0.297-0.703-0.618-1.238-0.961-0.399-0.243-1.426-0.774-3.078-1.602z" inkscape:connector-curvature="0"/>
      <g id="g232">
        <g id="g234" clip-path="url(#clipPath236)">
          <g id="g240" transform="matrix(.8 0 0 -1.068 4.7877 -18.545)">
            <g id="g266" mask="url(#mask258)">
              <path id="path276" style="fill-rule:evenodd;fill:url(#radialGradient268)" d="m10.148 3.218c-0.64-0.027-1.8 0.067-3.48 0.282-0.133 0.343-0.199 0.707-0.199 1.078 0 0.746 0.199 1.375 0.597 1.879 0.375 0.508 0.84 0.761 1.403 0.761 0.531 0 1-0.253 1.398-0.761 0.375-0.504 0.563-1.133 0.563-1.879 0-0.453-0.094-0.906-0.282-1.36z" inkscape:connector-curvature="0"/>
            </g>
          </g>
        </g>
      </g>
      <g id="g278">
        <g id="g280">
          <g id="g286">
            <path id="path294" style="fill-rule:evenodd;fill:url(#linearGradient288)" d="m5.586 3.019c-0.398 0.692-0.156 1.414 0.723 2.16l0.039 0.039c0.32 0.266 0.652 0.493 1 0.68 0.453 0.238 0.785 0.281 1 0.121 0.773-0.508 1.015-1.027 0.718-1.562-0.078-0.211-0.293-0.492-0.636-0.84-0.348-0.348-0.668-0.613-0.961-0.801-0.348-0.211-0.707-0.305-1.082-0.277-0.399 0.027-0.664 0.187-0.801 0.48z" inkscape:connector-curvature="0"/>
          </g>
        </g>
      </g>
      <path id="path296" style="fill-rule:evenodd;fill:#934c26" d="m6.109 2.738c-0.8 1.172-0.734 1.801 0.2 1.879 0.531 0.055 0.906-0.039 1.121-0.277 0.105-0.137 0.156-0.27 0.156-0.403 0.48 0.055 0.855 0.32 1.121 0.801 0.215 0.371 0.133 0.773-0.238 1.199 0.664-0.504 0.867-1 0.597-1.48-0.078-0.211-0.293-0.492-0.636-0.84-0.348-0.348-0.668-0.613-0.961-0.801-0.426-0.238-0.828-0.316-1.199-0.238l-0.161 0.16z" inkscape:connector-curvature="0"/>
      <path id="path298" style="fill-rule:evenodd;fill:#e49264" d="m8.469 5.578c0.027-0.215-0.094-0.305-0.36-0.281-0.429 0.054-0.722 0.054-0.882 0l-1-0.438 0.082 0.16c0.132 0.16 0.343 0.344 0.64 0.559 0.399 0.238 0.746 0.375 1.039 0.398 0.293 0 0.453-0.133 0.481-0.398z" inkscape:connector-curvature="0"/>
      <g id="g300">
        <g id="g302">
          <g id="g308">
            <path id="path316" style="fill-rule:evenodd;fill:url(#linearGradient310)" d="m5.988 4.617c0.664 0.055 1.094-0.199 1.282-0.758 0.105-0.269 0.132-0.547 0.078-0.84v-0.402c0-0.801-0.215-1.348-0.641-1.641-0.266-0.183-0.547-0.105-0.84 0.242-0.32 0.321-0.558 0.774-0.719 1.36-0.132 0.508-0.082 0.988 0.161 1.441 0.211 0.371 0.437 0.571 0.679 0.598z" inkscape:connector-curvature="0"/>
          </g>
        </g>
      </g>
      <path id="path318" style="fill-rule:evenodd;fill:#934c26" d="m5.867 1.179 0.281 0.039c0.106 0.051 0.239 0.188 0.399 0.399 0.242 0.32 0.336 0.68 0.281 1.082 0 0.531-0.027 0.933-0.082 1.199-0.051 0.293-0.211 0.535-0.476 0.719h0.039c0.503-0.027 0.839-0.305 1-0.84 0.05-0.266 0.066-0.52 0.039-0.758v-0.402c0-0.801-0.215-1.348-0.641-1.641-0.266-0.16-0.547-0.094-0.84 0.203z" inkscape:connector-curvature="0"/>
      <path id="path320" style="fill-rule:evenodd;fill:#e49264" d="m5.988 4.617c0.133 0.055 0.239 0.055 0.321 0h-0.039c-0.348-0.238-0.563-0.547-0.641-0.918-0.133-0.774-0.094-1.563 0.117-2.359-0.293 0.398-0.492 0.812-0.598 1.238-0.132 0.508-0.082 0.988 0.161 1.441 0.211 0.371 0.437 0.571 0.679 0.598z" inkscape:connector-curvature="0"/>
      <g id="g322">
        <g id="g324" clip-path="url(#clipPath326)">
          <g id="g330" transform="matrix(.8 0 0 -1.0275 4.7877 -19.13)">
            <g id="g356" mask="url(#mask348)">
              <path id="path366" style="fill-rule:evenodd;fill:url(#radialGradient358)" d="m16.949 2.457c-0.535-0.024-1.801 0.082-3.801 0.32-0.132 0.293-0.199 0.68-0.199 1.16 0 0.774 0.211 1.442 0.637 2 0.43 0.535 0.934 0.801 1.523 0.801 0.614 0 1.118-0.266 1.52-0.801 0.426-0.558 0.641-1.226 0.641-2 0-0.504-0.11-1-0.321-1.48z" inkscape:connector-curvature="0"/>
            </g>
          </g>
        </g>
      </g>
      <g id="g368">
        <g id="g370">
          <g id="g376">
            <path id="path384" style="fill-rule:evenodd;fill:url(#linearGradient378)" d="m14.988 5.457c0.824-0.532 1.094-1.094 0.801-1.68-0.109-0.211-0.348-0.504-0.723-0.879-0.398-0.375-0.757-0.652-1.078-0.84-0.347-0.215-0.718-0.308-1.121-0.281-0.453 0.027-0.758 0.188-0.918 0.48-0.453 0.747-0.187 1.52 0.797 2.321l0.043 0.039c0.399 0.32 0.758 0.562 1.078 0.723 0.508 0.238 0.879 0.277 1.121 0.117z" inkscape:connector-curvature="0"/>
          </g>
        </g>
      </g>
      <path id="path386" style="fill-rule:evenodd;fill:#934c26" d="m15.109 5.379c0.719-0.536 0.946-1.067 0.68-1.602-0.109-0.211-0.348-0.504-0.723-0.879-0.398-0.375-0.757-0.652-1.078-0.84-0.375-0.242-0.812-0.32-1.32-0.242l-0.121 0.16c-0.934 1.254-0.867 1.922 0.199 2 0.59 0.055 1-0.051 1.242-0.32 0.106-0.133 0.16-0.266 0.16-0.399 0.532 0.028 0.946 0.309 1.239 0.84 0.215 0.375 0.121 0.801-0.278 1.282z" inkscape:connector-curvature="0"/>
      <path id="path388" style="fill-rule:evenodd;fill:#e49264" d="m15.148 4.976c0.028-0.211-0.121-0.304-0.441-0.277-0.48 0.051-0.801 0.051-0.961 0l-1.117-0.481 0.117 0.2c0.16 0.16 0.402 0.347 0.723 0.558 0.426 0.27 0.801 0.403 1.117 0.403 0.348 0.027 0.535-0.106 0.562-0.403z" inkscape:connector-curvature="0"/>
      <g id="g390">
        <g id="g392">
          <g id="g398">
            <path id="path406" style="fill-rule:evenodd;fill:url(#linearGradient400)" d="m12.387 3.976c0.75 0.055 1.215-0.211 1.402-0.797 0.106-0.297 0.133-0.601 0.078-0.922v-0.398c0-0.883-0.226-1.469-0.679-1.762-0.293-0.187-0.614-0.105-0.961 0.243-0.344 0.343-0.598 0.824-0.758 1.437-0.133 0.563-0.082 1.066 0.16 1.52 0.211 0.429 0.465 0.656 0.758 0.679z" inkscape:connector-curvature="0"/>
          </g>
        </g>
      </g>
      <path id="path408" style="fill-rule:evenodd;fill:#934c26" d="m12.668 3.976h0.039c0.586-0.051 0.961-0.359 1.121-0.918 0.078-0.265 0.094-0.535 0.039-0.801v-0.398c0-0.883-0.226-1.469-0.679-1.762-0.293-0.16-0.602-0.078-0.918 0.243l0.277 0.039c0.16 0.078 0.308 0.211 0.441 0.398 0.239 0.32 0.36 0.707 0.36 1.16l-0.121 1.281c-0.051 0.321-0.239 0.575-0.559 0.758z" inkscape:connector-curvature="0"/>
      <path id="path410" style="fill-rule:evenodd;fill:#e49264" d="m12.387 3.976h0.281c-0.371-0.238-0.602-0.57-0.68-1-0.187-0.797-0.148-1.625 0.121-2.476-0.32 0.343-0.535 0.773-0.64 1.277-0.133 0.563-0.082 1.066 0.16 1.52 0.211 0.429 0.465 0.656 0.758 0.679z" inkscape:connector-curvature="0"/>
      <path id="path412" style="fill-rule:evenodd;fill:#7d4120" d="m20.109 9.539c0-0.403-0.082-0.735-0.242-1-0.187-0.266-0.398-0.403-0.64-0.403-0.239 0-0.438 0.137-0.598 0.403-0.188 0.265-0.281 0.597-0.281 1 0 0.371 0.093 0.691 0.281 0.961 0.16 0.265 0.359 0.398 0.598 0.398 0.242 0 0.453-0.133 0.64-0.398 0.16-0.27 0.242-0.59 0.242-0.961z" inkscape:connector-curvature="0"/>
      <g id="g414">
        <g id="g416">
          <g id="g422">
            <path id="path432" style="fill-rule:evenodd;fill:url(#linearGradient424)" d="m19.746 9.5c0-0.293-0.066-0.535-0.199-0.723-0.133-0.187-0.305-0.277-0.52-0.277-0.187 0-0.359 0.09-0.519 0.277-0.133 0.188-0.199 0.43-0.199 0.723s0.066 0.547 0.199 0.757c0.133 0.188 0.304 0.282 0.519 0.282s0.387-0.094 0.52-0.282c0.133-0.21 0.199-0.464 0.199-0.757z" inkscape:connector-curvature="0"/>
          </g>
        </g>
      </g>
      <path id="path434" style="fill-rule:evenodd;fill:#7d4120" d="m25.27 12.617c0-0.348-0.055-0.652-0.161-0.918-0.136-0.266-0.269-0.402-0.402-0.402-0.16 0-0.293 0.136-0.398 0.402-0.133 0.266-0.2 0.574-0.2 0.918 0 0.348 0.067 0.652 0.2 0.922 0.105 0.238 0.238 0.359 0.398 0.359 0.133 0 0.266-0.121 0.402-0.359 0.106-0.266 0.161-0.574 0.161-0.922z" inkscape:connector-curvature="0"/>
      <g id="g436">
        <g id="g438">
          <g id="g444">
            <path id="path454" style="fill-rule:evenodd;fill:url(#linearGradient446)" d="m25.027 12.617c0-0.641-0.16-0.961-0.48-0.961-0.133 0-0.238 0.094-0.32 0.281-0.106 0.188-0.161 0.414-0.161 0.68 0 0.265 0.055 0.492 0.161 0.68 0.082 0.187 0.187 0.281 0.32 0.281 0.32 0 0.48-0.321 0.48-0.961z" inkscape:connector-curvature="0"/>
          </g>
        </g>
      </g>
      <path id="path456" style="fill-rule:evenodd;fill:#e48f64" d="m21.27 17.097c-2.161-1.199-3.27-1.933-3.321-2.199-0.054-0.293-0.054-3.613 0-9.961-0.027-1.359-0.203-2.199-0.519-2.519l0.117 0.48c0.082 0.215 0.105 1.813 0.082 4.801-0.027 2.879-0.067 4.773-0.121 5.68-0.055 0.878-0.106 1.386-0.16 1.519-0.051 0.16-0.2 0.266-0.442 0.32-0.32 0.079-2.586 0.332-6.797 0.758l-4.839 0.801 6.039-0.641c1.121-0.132 2.414-0.254 3.879-0.359 1.464-0.105 2.32-0.133 2.558-0.078 0.242 0.027 1.281 0.519 3.121 1.48 1.149 0.614 2.387 1.332 3.719 2.161-0.051-0.321-1.156-1.067-3.316-2.243z" inkscape:connector-curvature="0"/>
      <g id="g458">
        <g id="g460" clip-path="url(#clipPath462)">
          <g id="g466" transform="matrix(.8 0 0 -1.0541 4.7877 -10.269)">
            <g id="g492" mask="url(#mask484)">
              <path id="path502" style="fill-rule:evenodd;fill:url(#radialGradient494)" d="m16.066 8.019c0-0.855-0.226-1.574-0.679-2.16-0.453-0.613-1-0.922-1.641-0.922-0.664 0-1.226 0.309-1.68 0.922-0.453 0.586-0.679 1.305-0.679 2.16 0 0.852 0.226 1.571 0.679 2.16 0.454 0.614 1.016 0.918 1.68 0.918 0.641 0 1.188-0.304 1.641-0.918 0.453-0.589 0.679-1.308 0.679-2.16z" inkscape:connector-curvature="0"/>
            </g>
          </g>
        </g>
      </g>
      <g id="g504">
        <g id="g506">
          <g id="g512">
            <path id="path520" style="fill-rule:evenodd;fill:url(#linearGradient514)" d="m13.508 9.898c0.215 0 0.398-0.199 0.558-0.601 0.161-0.344 0.243-0.731 0.243-1.161 0-0.453-0.414-0.785-1.243-1-0.906-0.265-1.851-0.199-2.839 0.204-0.852 0.316-1.454 1.039-1.797 2.16l-0.641 3.277 1.32 0.082c0.879-0.137 1.371-0.629 1.477-1.48 0.109-0.879 0.551-1.387 1.32-1.52 0.375-0.082 0.746-0.066 1.121 0.039h0.481z" inkscape:connector-curvature="0"/>
          </g>
        </g>
      </g>
      <path id="path522" style="fill-rule:evenodd;fill:#934c26" d="m8.629 8.859c-0.188 0.426-0.32 0.918-0.402 1.481l-0.079 0.718-0.359 1.719 1.32 0.082c0.879-0.137 1.371-0.629 1.477-1.48 0.082-0.668 0.375-1.133 0.883-1.403-0.188-0.211-0.496-0.453-0.922-0.719-0.664-0.375-1.305-0.507-1.918-0.398z" inkscape:connector-curvature="0"/>
      <path id="path524" style="fill-rule:evenodd;fill:#934c26" d="m13.109 7.777c0.45 0.48 0.586 1.188 0.399 2.121 0.215 0 0.398-0.199 0.558-0.601 0.161-0.344 0.243-0.731 0.243-1.161 0-0.453-0.414-0.785-1.243-1-0.906-0.265-1.851-0.199-2.839 0.204l-0.559 0.277c0.641-0.266 1.305-0.387 2-0.36 0.668 0.055 1.144 0.227 1.441 0.52z" inkscape:connector-curvature="0"/>
      <g id="g526">
        <g id="g528">
          <g id="g534">
            <path id="path542" style="fill-rule:evenodd;fill:url(#linearGradient536)" d="m9.227 12.097c0.054 0.348 0.226 0.762 0.519 1.243 0.453 0.691 0.762 1.226 0.922 1.597 0.32 0.695 0.746 0.879 1.281 0.563 0.531-0.348 0.797-0.95 0.797-1.801-0.023-0.828-0.332-1.613-0.918-2.359-0.558-0.75-1.082-1.083-1.558-1-0.856 0.132-1.204 0.718-1.043 1.757z" inkscape:connector-curvature="0"/>
          </g>
        </g>
      </g>
      <path id="path544" style="fill-rule:evenodd;fill:#934c26" d="m12.27 15.218c0.316-0.402 0.476-0.906 0.476-1.519-0.023-0.828-0.332-1.613-0.918-2.359-0.558-0.75-1.082-1.083-1.558-1-0.856 0.132-1.204 0.718-1.043 1.757 0.054 0.375 0.265 0.84 0.64 1.403 0.613 0 1.039-0.442 1.281-1.321 0.321 0.161 0.559 0.653 0.719 1.477 0.133 0.617-0.066 1.254-0.597 1.922 0.343 0.133 0.679 0.012 1-0.36z" inkscape:connector-curvature="0"/>
      <path id="path546" style="fill-rule:evenodd;fill:#e49264" d="m9.988 13.738 0.68 1.199c0.105 0.27 0.266 0.453 0.48 0.563 0.215-0.618 0.149-1.067-0.199-1.364-0.242-0.211-0.562-0.343-0.961-0.398z" inkscape:connector-curvature="0"/>
      <g id="g548">
        <g id="g550">
          <g id="g556">
            <path id="path564" style="fill-rule:evenodd;fill:url(#linearGradient558)" d="m9.547 14.179c0.535-1.175 1-2.175 1.402-3 0.106-0.297-0.054-0.679-0.48-1.16-0.508-0.613-1.387-0.949-2.641-1-1.359-0.082-2.387 0.293-3.082 1.117-0.797 0.883-1.066 2.11-0.797 3.68 0.321 1.684 1.172 3.043 2.559 4.082 1.199 0.906 2 0.707 2.398-0.601 0.215-0.719 0.43-1.758 0.641-3.118z" inkscape:connector-curvature="0"/>
          </g>
        </g>
      </g>
      <path id="path566" style="fill-rule:evenodd;fill:#934c26" d="m9.066 16.578 0.481-2.399c0.535-1.175 1-2.175 1.402-3 0.106-0.297-0.054-0.679-0.48-1.16-0.614-0.668-1.574-1-2.883-1 0.59 0.211 1.016 0.653 1.281 1.321 0.266 0.691 0.227 1.25-0.121 1.679-0.398 0.504-0.691 1.199-0.879 2.078-0.16 0.828-0.172 1.535-0.039 2.121 0.16 0.852 0.199 1.598 0.121 2.239 0.531-0.106 0.906-0.731 1.117-1.879z" inkscape:connector-curvature="0"/>
      <path id="path568" style="fill-rule:evenodd;fill:#e49264" d="m4.746 10.136c-0.797 0.883-1.066 2.11-0.797 3.68 0.321 1.684 1.172 3.043 2.559 4.082 0.32 0.238 0.625 0.414 0.922 0.52 0.425-0.371 0.476-0.813 0.156-1.321-0.078-0.16-0.559-0.558-1.438-1.199-0.746-0.586-1.175-1.148-1.281-1.68-0.398-2.293-0.039-3.933 1.082-4.921-0.508 0.187-0.906 0.468-1.203 0.839z" inkscape:connector-curvature="0"/>
    </g>
  </g>
<metadata><rdf:RDF><cc:Work><dc:format>image/svg+xml</dc:format><dc:type rdf:resource="http://purl.org/dc/dcmitype/StillImage"/><cc:license rdf:resource="http://creativecommons.org/licenses/publicdomain/"/><dc:publisher><cc:Agent rdf:about="http://openclipart.org/"><dc:title>Openclipart</dc:title></cc:Agent></dc:publisher></cc:Work><cc:License rdf:about="http://creativecommons.org/licenses/publicdomain/"><cc:permits rdf:resource="http://creativecommons.org/ns#Reproduction"/><cc:permits rdf:resource="http://creativecommons.org/ns#Distribution"/><cc:permits rdf:resource="http://creativecommons.org/ns#DerivativeWorks"/></cc:License></rdf:RDF></metadata></svg>
